HIERARCHY
ROOT Hips
{
	OFFSET 0.000000 0.000000 0.000000
	CHANNELS 6 Xposition Yposition Zposition Zrotation Yrotation Xrotation 
	JOINT LHipJoint
	{
		OFFSET 0.000000 0.000000 0.000000
		CHANNELS 3 Zrotation Yrotation Xrotation
		JOINT LeftUpLeg
		{
			OFFSET 8.178360 -10.767780 5.035740
			CHANNELS 3 Zrotation Yrotation Xrotation
			JOINT LeftLeg
			{
				OFFSET 14.688660 -40.356780 0.000000
				CHANNELS 3 Zrotation Yrotation Xrotation
				JOINT LeftFoot
				{
					OFFSET 15.373200 -42.237540 0.000000
					CHANNELS 3 Zrotation Yrotation Xrotation
					JOINT LeftToeBase
					{
						OFFSET 0.945840 -2.598660 13.935300
						CHANNELS 3 Zrotation Yrotation Xrotation
						End Site
						{
							OFFSET 0.000000 0.000000 0.000000
						}
					}
				}
			}
		}
	}
	JOINT RHipJoint
	{
		OFFSET 0.000000 0.000000 0.000000
		CHANNELS 3 Zrotation Yrotation Xrotation
		JOINT RightUpLeg
		{
			OFFSET -7.833120 -10.767780 5.035740
			CHANNELS 3 Zrotation Yrotation Xrotation
			JOINT RightLeg
			{
				OFFSET -15.255180 -41.913300 0.000000
				CHANNELS 3 Zrotation Yrotation Xrotation
				JOINT RightFoot
				{
					OFFSET -15.409560 -42.337380 0.000000
					CHANNELS 3 Zrotation Yrotation Xrotation
					JOINT RightToeBase
					{
						OFFSET -0.988380 -2.715540 14.178900
						CHANNELS 3 Zrotation Yrotation Xrotation
						End Site
						{
							OFFSET 0.000000 0.000000 0.000000
						}
					}
				}
			}
		}
	}
	JOINT LowerBack
	{
		OFFSET 0.000000 0.000000 0.000000
		CHANNELS 3 Zrotation Yrotation Xrotation
		JOINT Spine
		{
			OFFSET 0.169620 12.213540 -1.160280
			CHANNELS 3 Zrotation Yrotation Xrotation
			JOINT Spine1
			{
				OFFSET 0.340320 12.293100 -0.256500
				CHANNELS 3 Zrotation Yrotation Xrotation
				JOINT Neck
				{
					OFFSET 0.000000 0.000000 0.000000
					CHANNELS 3 Zrotation Yrotation Xrotation
					JOINT Neck1
					{
						OFFSET -0.325020 10.477440 1.032120
						CHANNELS 3 Zrotation Yrotation Xrotation
						JOINT Head
						{
							OFFSET 0.624420 10.568160 -0.743820
							CHANNELS 3 Zrotation Yrotation Xrotation
							End Site
							{
								OFFSET 0.000000 0.000000 0.000000
							}
						}
					}
				}
				JOINT LeftShoulder
				{
					OFFSET 0.000000 0.000000 0.000000
					CHANNELS 3 Zrotation Yrotation Xrotation
					JOINT LeftArm
					{
						OFFSET 20.174460 7.205340 -1.867260
						CHANNELS 3 Zrotation Yrotation Xrotation
						JOINT LeftForeArm
						{
							OFFSET 29.898000 -0.000000 -0.000000
							CHANNELS 3 Zrotation Yrotation Xrotation
							JOINT LeftHand
							{
								OFFSET 20.901360 -0.000000 -0.000000
								CHANNELS 3 Zrotation Yrotation Xrotation
								JOINT LeftFingerBase
								{
									OFFSET 0.000000 0.000000 0.000000
									CHANNELS 3 Zrotation Yrotation Xrotation
									JOINT LeftHandIndex1
									{
										OFFSET 4.291560 -0.000000 -0.000000
										CHANNELS 3 Zrotation Yrotation Xrotation
										End Site
										{
											OFFSET 0.000000 0.000000 0.000000
										}
									}
								}
								JOINT LThumb
								{
									OFFSET 0.000000 0.000000 0.000000
									CHANNELS 3 Zrotation Yrotation Xrotation
									End Site
									{
										OFFSET 0.000000 0.000000 0.000000
									}
								}
							}
						}
					}
				}
				JOINT RightShoulder
				{
					OFFSET 0.000000 0.000000 0.000000
					CHANNELS 3 Zrotation Yrotation Xrotation
					JOINT RightArm
					{
						OFFSET -18.819600 8.244300 -2.427900
						CHANNELS 3 Zrotation Yrotation Xrotation
						JOINT RightForeArm
						{
							OFFSET -31.451400 -0.000000 -0.000000
							CHANNELS 3 Zrotation Yrotation Xrotation
							JOINT RightHand
							{
								OFFSET -20.665020 -0.000000 -0.000000
								CHANNELS 3 Zrotation Yrotation Xrotation
								JOINT RightFingerBase
								{
									OFFSET 0.000000 0.000000 0.000000
									CHANNELS 3 Zrotation Yrotation Xrotation
									JOINT RightHandIndex1
									{
										OFFSET -3.735180 -0.000000 -0.000000
										CHANNELS 3 Zrotation Yrotation Xrotation
										End Site
										{
											OFFSET 0.000000 0.000000 0.000000
										}
									}
								}
								JOINT RThumb
								{
									OFFSET 0.000000 0.000000 0.000000
									CHANNELS 3 Zrotation Yrotation Xrotation
									End Site
									{
										OFFSET 0.000000 0.000000 0.000000
									}
								}
							}
						}
					}
				}
			}
		}
	}
}
MOTION
Frames:	7
Frame Time:	0.0333333
22.986276 106.977942 0.536910 7.531336 -38.951384 -2.459875 -1.030086 1.624526 2.096799 -24.487977 -6.989222 -8.053575 1.012960 8.872121 27.621352 0.500717 0.356485 -2.063436 -0.000000 0.030100 0.082600 -2.378432 -1.684070 0.656738 16.951816 8.417055 -32.718328 -7.807566 -16.613687 53.091676 0.050497 -2.258200 2.881441 -0.002100 0.293500 -0.806300 -3.171238 -0.073908 7.408267 0.775192 -0.571816 -2.014187 4.000021 -0.033649 -3.732130 -7.176561 -2.334281 -13.372153 2.347148 -2.081982 15.753005 2.113500 -1.692500 11.254300 -8.008401 2.671106 -2.195023 -80.998880 -3.150416 15.250103 8.628302 -16.645843 -1.517146 -1.519611 -3.494155 13.934826 13.052952 23.453667 6.378500 -7.125000 0.000000 0.000000 -18.133500 56.963500 -5.438100 6.283334 -2.351327 -2.690191 81.079469 -8.990463 2.969473 -13.121514 20.786214 -3.401311 1.018926 -0.619480 7.497762 -12.773235 11.558630 -2.937500 7.125000 0.000000 0.000000 9.289700 -17.725200 6.101400 
19.681932 106.754022 5.095692 9.533760 -37.757487 -3.026539 -1.169581 1.778101 2.432394 -26.568211 -5.143516 -4.108754 0.467849 7.640804 24.325611 0.610228 -0.088109 -2.281622 0.014800 -0.786500 -2.161600 -2.053622 -1.509622 0.378901 14.166054 8.829632 -34.741918 -4.558820 -14.060859 41.109564 1.360970 -8.000771 3.863377 -0.239100 3.146900 -8.688000 -5.091241 -0.434574 7.073850 0.614359 -1.184824 -2.006626 4.646378 -0.380148 -3.549273 -7.620232 -2.647425 -12.777499 2.915900 -2.469759 14.644975 2.444400 -1.794000 10.582900 -7.940139 2.586887 -2.243205 -80.296916 -4.599573 18.950473 9.800470 -18.709411 -2.062490 -1.452290 -3.536807 11.535447 13.883541 23.430795 6.811800 -7.125000 0.000000 0.000000 -17.177900 57.129300 -5.208800 6.238524 -2.287644 -2.565801 81.549555 -8.576790 1.310063 -12.578416 19.907214 -3.100989 1.053481 -0.589744 8.933997 -13.190580 10.626644 -2.790600 7.125000 0.000000 0.000000 8.987400 -18.705300 5.700800 
16.123980 106.590108 9.660036 10.593247 -36.861487 -3.143745 -1.327901 1.995494 2.820521 -27.198168 -2.880482 0.163619 -0.117840 6.122215 20.291462 0.809766 -0.937044 -1.700069 0.059400 -1.572000 -4.324300 -1.570755 -1.368810 0.044080 11.758723 9.710765 -34.058852 -1.483700 -10.011427 26.724546 2.381561 -12.997374 8.569028 -0.001500 -0.249500 0.685500 -6.408357 -0.725047 6.884943 0.572888 -1.643919 -2.029553 5.386568 -0.622364 -3.790515 -8.555521 -2.319724 -10.311801 3.395782 -1.994535 13.472181 2.964000 -1.582000 9.350300 -7.851426 2.573502 -2.269747 -79.665107 -5.404595 21.974408 11.019950 -20.799358 -2.691642 -1.350625 -3.542394 9.936210 14.188810 23.257324 6.913000 -7.125000 0.000000 0.000000 -16.734400 56.996800 -5.015100 6.166434 -2.266172 -2.420546 81.888230 -8.417373 0.207752 -12.074269 19.132311 -2.853610 1.024778 -0.670750 11.289525 -13.250747 10.528474 -2.788800 7.125000 0.000000 0.000000 8.943400 -18.761400 5.661000 
12.371184 106.165158 14.323356 10.622039 -35.696073 -2.940239 -1.383282 2.316169 3.188724 -26.321600 -0.826769 4.801070 -0.562746 4.670252 16.593155 1.390196 -3.435297 0.288691 0.048000 -1.414500 -3.890100 -1.154932 -1.421452 -0.187968 9.883519 11.318717 -31.351822 0.408464 -5.522675 13.531683 3.689892 -16.943798 6.256527 -0.000600 -0.162800 0.447400 -6.956652 -1.255814 6.586726 0.678633 -2.342112 -1.995397 6.029026 -1.025888 -3.436357 -8.637095 -2.494338 -10.649213 3.198959 -2.166363 13.284559 2.843700 -1.666200 9.331300 -7.672235 2.499544 -2.324487 -79.324550 -6.135425 23.227615 12.223511 -22.739746 -3.333854 -1.469019 -3.467386 8.314568 16.240087 22.468305 7.779700 -7.125000 0.000000 0.000000 -13.872100 56.620300 -4.005000 6.179666 -2.298569 -2.391000 82.122329 -8.210809 -0.242029 -11.886874 18.813676 -2.758150 1.003245 -0.675172 12.171874 -13.149475 10.284571 -2.703200 7.125000 0.000000 0.000000 9.029200 -19.023100 5.663500 
8.560242 105.693198 18.888942 10.666470 -33.980483 -2.571910 -1.282913 2.560649 3.381017 -25.383269 -0.669939 8.183478 -0.699260 4.082558 15.213542 1.959279 -6.015189 1.522140 0.859700 -5.912600 -16.531100 -0.995877 -1.547724 -0.221925 9.556406 10.428831 -29.695941 1.012581 -2.890739 6.452609 3.846293 -17.122006 5.197638 -0.333000 3.708500 -10.258000 -7.357077 -1.749913 6.327581 0.680254 -3.000196 -2.003724 6.205716 -1.387475 -3.238384 -8.323393 -2.788163 -10.982039 3.141096 -2.621073 13.318958 2.689000 -1.846500 9.448600 -7.552849 2.422197 -2.347181 -78.879401 -7.202231 23.857575 13.057803 -23.979394 -3.783107 -1.404246 -3.577527 6.221995 16.853077 23.148110 8.308800 -7.125000 0.000000 0.000000 -13.576800 57.492500 -4.205200 6.140076 -2.299218 -2.399017 82.790944 -8.313802 0.220953 -12.011961 18.927830 -2.796549 1.043477 -0.528708 11.438647 -13.261779 9.241323 -2.429100 7.125000 0.000000 0.000000 8.976200 -20.215900 5.387200 
4.579194 105.452574 23.855352 10.200381 -33.857363 -2.986243 -1.027060 2.695491 3.474087 -24.927625 -1.225744 11.463979 -0.436879 4.655415 17.162645 2.017880 -6.995077 5.561668 1.769200 -8.367800 -23.837000 -1.230067 -1.541472 -0.175000 11.919843 8.211558 -30.752622 0.663963 -5.017910 12.495231 1.969371 -11.210846 8.197115 -0.174500 2.691300 -7.420400 -6.907501 -1.654841 6.277925 0.731546 -2.811565 -1.918655 6.154678 -1.335767 -3.076769 -8.740047 -3.031619 -10.838402 3.260103 -2.878174 13.537629 2.820100 -2.000200 9.549600 -7.518527 2.453050 -2.329153 -79.207250 -7.444029 23.376866 13.339056 -24.355428 -3.928831 -1.478784 -3.521625 6.288731 17.539229 22.701433 8.536100 -7.125000 0.000000 0.000000 -12.504800 57.165200 -3.766600 6.088951 -2.332927 -2.415672 82.847044 -8.825621 1.807322 -12.136268 19.098347 -2.827028 1.234418 -0.399174 9.523810 -14.547091 8.521890 -2.447000 7.125000 0.000000 0.000000 7.967400 -21.011400 4.625000 
0.047010 105.320826 28.868154 9.937332 -32.341048 -3.406738 -0.804528 2.708477 3.456625 -24.064732 -2.618636 12.185383 0.167735 6.281511 22.168336 2.249217 -8.506978 15.317038 1.467900 -7.656500 -21.675400 -1.364485 -1.665915 -0.048526 12.590038 9.126863 -28.832918 -0.091014 -7.159249 18.761890 1.844847 -10.780870 8.760314 -0.045700 1.380000 -3.794900 -7.294840 -2.076349 5.919540 0.822343 -3.388256 -1.897753 6.598847 -1.617130 -2.810340 -8.856339 -2.949314 -10.400081 2.825514 -2.746698 13.684359 2.638100 -1.998700 9.441300 -7.484724 2.583817 -2.342451 -79.763612 -6.476681 21.761919 13.511243 -24.674570 -4.030630 -1.501530 -3.551566 6.235453 17.922771 22.920710 8.809800 -7.125000 0.000000 0.000000 -12.207300 57.502500 -3.774900 6.131149 -2.468749 -2.413577 82.860621 -9.174768 1.069301 -11.862250 18.768275 -2.724654 1.153449 -0.624418 10.967286 -14.081907 10.082283 -2.842000 7.125000 0.000000 0.000000 8.286400 -19.230900 5.148500 
